<mxfile host="Electron" agent="Mozilla/5.0 (Windows NT 10.0; Win64; x64) AppleWebKit/537.36 (KHTML, like Gecko) draw.io/24.7.8 Chrome/128.0.6613.36 Electron/32.0.1 Safari/537.36" version="24.7.8">
  <diagram id="C5RBs43oDa-KdzZeNtuy" name="Page-1">
    <mxGraphModel dx="880" dy="1701" grid="1" gridSize="10" guides="1" tooltips="1" connect="1" arrows="1" fold="1" page="1" pageScale="1" pageWidth="827" pageHeight="1169" math="0" shadow="0">
      <root>
        <mxCell id="WIyWlLk6GJQsqaUBKTNV-0" />
        <mxCell id="WIyWlLk6GJQsqaUBKTNV-1" parent="WIyWlLk6GJQsqaUBKTNV-0" />
        <mxCell id="zkfFHV4jXpPFQw0GAbJ--0" value="LECTURER" style="swimlane;fontStyle=2;align=center;verticalAlign=top;childLayout=stackLayout;horizontal=1;startSize=26;horizontalStack=0;resizeParent=1;resizeLast=0;collapsible=1;marginBottom=0;rounded=0;shadow=0;strokeWidth=1;" parent="WIyWlLk6GJQsqaUBKTNV-1" vertex="1">
          <mxGeometry x="360" y="-759" width="160" height="288" as="geometry">
            <mxRectangle x="230" y="140" width="160" height="26" as="alternateBounds" />
          </mxGeometry>
        </mxCell>
        <mxCell id="zkfFHV4jXpPFQw0GAbJ--1" value="Name" style="text;align=left;verticalAlign=top;spacingLeft=4;spacingRight=4;overflow=hidden;rotatable=0;points=[[0,0.5],[1,0.5]];portConstraint=eastwest;" parent="zkfFHV4jXpPFQw0GAbJ--0" vertex="1">
          <mxGeometry y="26" width="160" height="26" as="geometry" />
        </mxCell>
        <mxCell id="zkfFHV4jXpPFQw0GAbJ--2" value="Phone Number" style="text;align=left;verticalAlign=top;spacingLeft=4;spacingRight=4;overflow=hidden;rotatable=0;points=[[0,0.5],[1,0.5]];portConstraint=eastwest;rounded=0;shadow=0;html=0;" parent="zkfFHV4jXpPFQw0GAbJ--0" vertex="1">
          <mxGeometry y="52" width="160" height="26" as="geometry" />
        </mxCell>
        <mxCell id="zkfFHV4jXpPFQw0GAbJ--3" value="Email Address" style="text;align=left;verticalAlign=top;spacingLeft=4;spacingRight=4;overflow=hidden;rotatable=0;points=[[0,0.5],[1,0.5]];portConstraint=eastwest;rounded=0;shadow=0;html=0;" parent="zkfFHV4jXpPFQw0GAbJ--0" vertex="1">
          <mxGeometry y="78" width="160" height="26" as="geometry" />
        </mxCell>
        <mxCell id="krsl9b_D-gAgWBF9Nas3-29" value="Lecturer ID" style="text;strokeColor=none;fillColor=none;align=left;verticalAlign=middle;spacingLeft=4;spacingRight=4;overflow=hidden;points=[[0,0.5],[1,0.5]];portConstraint=eastwest;rotatable=0;whiteSpace=wrap;html=1;" parent="zkfFHV4jXpPFQw0GAbJ--0" vertex="1">
          <mxGeometry y="104" width="160" height="30" as="geometry" />
        </mxCell>
        <mxCell id="zkfFHV4jXpPFQw0GAbJ--4" value="" style="line;html=1;strokeWidth=1;align=left;verticalAlign=middle;spacingTop=-1;spacingLeft=3;spacingRight=3;rotatable=0;labelPosition=right;points=[];portConstraint=eastwest;" parent="zkfFHV4jXpPFQw0GAbJ--0" vertex="1">
          <mxGeometry y="134" width="160" height="8" as="geometry" />
        </mxCell>
        <mxCell id="krsl9b_D-gAgWBF9Nas3-33" value="Login" style="text;strokeColor=none;fillColor=none;align=left;verticalAlign=middle;spacingLeft=4;spacingRight=4;overflow=hidden;points=[[0,0.5],[1,0.5]];portConstraint=eastwest;rotatable=0;whiteSpace=wrap;html=1;" parent="zkfFHV4jXpPFQw0GAbJ--0" vertex="1">
          <mxGeometry y="142" width="160" height="30" as="geometry" />
        </mxCell>
        <mxCell id="krsl9b_D-gAgWBF9Nas3-31" value="Grades Projects" style="text;strokeColor=none;fillColor=none;align=left;verticalAlign=middle;spacingLeft=4;spacingRight=4;overflow=hidden;points=[[0,0.5],[1,0.5]];portConstraint=eastwest;rotatable=0;whiteSpace=wrap;html=1;" parent="zkfFHV4jXpPFQw0GAbJ--0" vertex="1">
          <mxGeometry y="172" width="160" height="30" as="geometry" />
        </mxCell>
        <mxCell id="krsl9b_D-gAgWBF9Nas3-32" value="Provides Feedback&amp;nbsp;" style="text;strokeColor=none;fillColor=none;align=left;verticalAlign=middle;spacingLeft=4;spacingRight=4;overflow=hidden;points=[[0,0.5],[1,0.5]];portConstraint=eastwest;rotatable=0;whiteSpace=wrap;html=1;" parent="zkfFHV4jXpPFQw0GAbJ--0" vertex="1">
          <mxGeometry y="202" width="160" height="30" as="geometry" />
        </mxCell>
        <mxCell id="krsl9b_D-gAgWBF9Nas3-34" value="Creates Quizes" style="text;strokeColor=none;fillColor=none;align=left;verticalAlign=middle;spacingLeft=4;spacingRight=4;overflow=hidden;points=[[0,0.5],[1,0.5]];portConstraint=eastwest;rotatable=0;whiteSpace=wrap;html=1;" parent="zkfFHV4jXpPFQw0GAbJ--0" vertex="1">
          <mxGeometry y="232" width="160" height="30" as="geometry" />
        </mxCell>
        <mxCell id="zkfFHV4jXpPFQw0GAbJ--5" value="Creates Subjects&#xa;" style="text;align=left;verticalAlign=top;spacingLeft=4;spacingRight=4;overflow=hidden;rotatable=0;points=[[0,0.5],[1,0.5]];portConstraint=eastwest;" parent="zkfFHV4jXpPFQw0GAbJ--0" vertex="1">
          <mxGeometry y="262" width="160" height="26" as="geometry" />
        </mxCell>
        <mxCell id="krsl9b_D-gAgWBF9Nas3-70" style="edgeStyle=orthogonalEdgeStyle;rounded=0;orthogonalLoop=1;jettySize=auto;html=1;exitX=0.5;exitY=1;exitDx=0;exitDy=0;" parent="WIyWlLk6GJQsqaUBKTNV-1" source="zkfFHV4jXpPFQw0GAbJ--6" edge="1">
          <mxGeometry relative="1" as="geometry">
            <mxPoint x="310" y="-230" as="targetPoint" />
          </mxGeometry>
        </mxCell>
        <mxCell id="zkfFHV4jXpPFQw0GAbJ--6" value="SUBJECT" style="swimlane;fontStyle=0;align=center;verticalAlign=top;childLayout=stackLayout;horizontal=1;startSize=26;horizontalStack=0;resizeParent=1;resizeLast=0;collapsible=1;marginBottom=0;rounded=0;shadow=0;strokeWidth=1;" parent="WIyWlLk6GJQsqaUBKTNV-1" vertex="1">
          <mxGeometry x="230" y="-380" width="160" height="166" as="geometry">
            <mxRectangle x="130" y="380" width="160" height="26" as="alternateBounds" />
          </mxGeometry>
        </mxCell>
        <mxCell id="zkfFHV4jXpPFQw0GAbJ--7" value="Subject ID" style="text;align=left;verticalAlign=top;spacingLeft=4;spacingRight=4;overflow=hidden;rotatable=0;points=[[0,0.5],[1,0.5]];portConstraint=eastwest;" parent="zkfFHV4jXpPFQw0GAbJ--6" vertex="1">
          <mxGeometry y="26" width="160" height="24" as="geometry" />
        </mxCell>
        <mxCell id="zkfFHV4jXpPFQw0GAbJ--8" value="DescriptionÂ " style="text;align=left;verticalAlign=top;spacingLeft=4;spacingRight=4;overflow=hidden;rotatable=0;points=[[0,0.5],[1,0.5]];portConstraint=eastwest;rounded=0;shadow=0;html=0;" parent="zkfFHV4jXpPFQw0GAbJ--6" vertex="1">
          <mxGeometry y="50" width="160" height="26" as="geometry" />
        </mxCell>
        <mxCell id="zkfFHV4jXpPFQw0GAbJ--9" value="" style="line;html=1;strokeWidth=1;align=left;verticalAlign=middle;spacingTop=-1;spacingLeft=3;spacingRight=3;rotatable=0;labelPosition=right;points=[];portConstraint=eastwest;" parent="zkfFHV4jXpPFQw0GAbJ--6" vertex="1">
          <mxGeometry y="76" width="160" height="8" as="geometry" />
        </mxCell>
        <mxCell id="zkfFHV4jXpPFQw0GAbJ--10" value="Add Quiz" style="text;align=left;verticalAlign=top;spacingLeft=4;spacingRight=4;overflow=hidden;rotatable=0;points=[[0,0.5],[1,0.5]];portConstraint=eastwest;fontStyle=4" parent="zkfFHV4jXpPFQw0GAbJ--6" vertex="1">
          <mxGeometry y="84" width="160" height="26" as="geometry" />
        </mxCell>
        <mxCell id="krsl9b_D-gAgWBF9Nas3-42" value="Add Project" style="text;strokeColor=none;fillColor=none;align=left;verticalAlign=middle;spacingLeft=4;spacingRight=4;overflow=hidden;points=[[0,0.5],[1,0.5]];portConstraint=eastwest;rotatable=0;whiteSpace=wrap;html=1;" parent="zkfFHV4jXpPFQw0GAbJ--6" vertex="1">
          <mxGeometry y="110" width="160" height="30" as="geometry" />
        </mxCell>
        <mxCell id="zkfFHV4jXpPFQw0GAbJ--17" value="STUDENT" style="swimlane;fontStyle=0;align=center;verticalAlign=top;childLayout=stackLayout;horizontal=1;startSize=26;horizontalStack=0;resizeParent=1;resizeLast=0;collapsible=1;marginBottom=0;rounded=0;shadow=0;strokeWidth=1;" parent="WIyWlLk6GJQsqaUBKTNV-1" vertex="1">
          <mxGeometry x="700" y="-770" width="160" height="310" as="geometry">
            <mxRectangle x="550" y="140" width="160" height="26" as="alternateBounds" />
          </mxGeometry>
        </mxCell>
        <mxCell id="zkfFHV4jXpPFQw0GAbJ--18" value="Student ID" style="text;align=left;verticalAlign=top;spacingLeft=4;spacingRight=4;overflow=hidden;rotatable=0;points=[[0,0.5],[1,0.5]];portConstraint=eastwest;" parent="zkfFHV4jXpPFQw0GAbJ--17" vertex="1">
          <mxGeometry y="26" width="160" height="26" as="geometry" />
        </mxCell>
        <mxCell id="zkfFHV4jXpPFQw0GAbJ--19" value="Name" style="text;align=left;verticalAlign=top;spacingLeft=4;spacingRight=4;overflow=hidden;rotatable=0;points=[[0,0.5],[1,0.5]];portConstraint=eastwest;rounded=0;shadow=0;html=0;" parent="zkfFHV4jXpPFQw0GAbJ--17" vertex="1">
          <mxGeometry y="52" width="160" height="26" as="geometry" />
        </mxCell>
        <mxCell id="zkfFHV4jXpPFQw0GAbJ--20" value="Email" style="text;align=left;verticalAlign=top;spacingLeft=4;spacingRight=4;overflow=hidden;rotatable=0;points=[[0,0.5],[1,0.5]];portConstraint=eastwest;rounded=0;shadow=0;html=0;" parent="zkfFHV4jXpPFQw0GAbJ--17" vertex="1">
          <mxGeometry y="78" width="160" height="26" as="geometry" />
        </mxCell>
        <mxCell id="zkfFHV4jXpPFQw0GAbJ--21" value="Phone number" style="text;align=left;verticalAlign=top;spacingLeft=4;spacingRight=4;overflow=hidden;rotatable=0;points=[[0,0.5],[1,0.5]];portConstraint=eastwest;rounded=0;shadow=0;html=0;" parent="zkfFHV4jXpPFQw0GAbJ--17" vertex="1">
          <mxGeometry y="104" width="160" height="26" as="geometry" />
        </mxCell>
        <mxCell id="zkfFHV4jXpPFQw0GAbJ--23" value="" style="line;html=1;strokeWidth=1;align=left;verticalAlign=middle;spacingTop=-1;spacingLeft=3;spacingRight=3;rotatable=0;labelPosition=right;points=[];portConstraint=eastwest;" parent="zkfFHV4jXpPFQw0GAbJ--17" vertex="1">
          <mxGeometry y="130" width="160" height="8" as="geometry" />
        </mxCell>
        <mxCell id="krsl9b_D-gAgWBF9Nas3-37" value="Register" style="text;strokeColor=none;fillColor=none;align=left;verticalAlign=middle;spacingLeft=4;spacingRight=4;overflow=hidden;points=[[0,0.5],[1,0.5]];portConstraint=eastwest;rotatable=0;whiteSpace=wrap;html=1;" parent="zkfFHV4jXpPFQw0GAbJ--17" vertex="1">
          <mxGeometry y="138" width="160" height="30" as="geometry" />
        </mxCell>
        <mxCell id="zkfFHV4jXpPFQw0GAbJ--24" value="Login" style="text;align=left;verticalAlign=top;spacingLeft=4;spacingRight=4;overflow=hidden;rotatable=0;points=[[0,0.5],[1,0.5]];portConstraint=eastwest;" parent="zkfFHV4jXpPFQw0GAbJ--17" vertex="1">
          <mxGeometry y="168" width="160" height="26" as="geometry" />
        </mxCell>
        <mxCell id="zkfFHV4jXpPFQw0GAbJ--25" value="View Subjects" style="text;align=left;verticalAlign=top;spacingLeft=4;spacingRight=4;overflow=hidden;rotatable=0;points=[[0,0.5],[1,0.5]];portConstraint=eastwest;" parent="zkfFHV4jXpPFQw0GAbJ--17" vertex="1">
          <mxGeometry y="194" width="160" height="26" as="geometry" />
        </mxCell>
        <mxCell id="krsl9b_D-gAgWBF9Nas3-35" value="Attempt Quizes" style="text;strokeColor=none;fillColor=none;align=left;verticalAlign=middle;spacingLeft=4;spacingRight=4;overflow=hidden;points=[[0,0.5],[1,0.5]];portConstraint=eastwest;rotatable=0;whiteSpace=wrap;html=1;" parent="zkfFHV4jXpPFQw0GAbJ--17" vertex="1">
          <mxGeometry y="220" width="160" height="30" as="geometry" />
        </mxCell>
        <mxCell id="krsl9b_D-gAgWBF9Nas3-38" value="Submit Project" style="text;strokeColor=none;fillColor=none;align=left;verticalAlign=middle;spacingLeft=4;spacingRight=4;overflow=hidden;points=[[0,0.5],[1,0.5]];portConstraint=eastwest;rotatable=0;whiteSpace=wrap;html=1;" parent="zkfFHV4jXpPFQw0GAbJ--17" vertex="1">
          <mxGeometry y="250" width="160" height="30" as="geometry" />
        </mxCell>
        <mxCell id="krsl9b_D-gAgWBF9Nas3-64" value="" style="endArrow=classic;html=1;rounded=0;entryX=0.9;entryY=-0.018;entryDx=0;entryDy=0;entryPerimeter=0;" parent="zkfFHV4jXpPFQw0GAbJ--17" target="krsl9b_D-gAgWBF9Nas3-11" edge="1">
          <mxGeometry width="50" height="50" relative="1" as="geometry">
            <mxPoint x="-10" y="300" as="sourcePoint" />
            <mxPoint x="40" y="250" as="targetPoint" />
            <Array as="points">
              <mxPoint x="-90" y="290" />
            </Array>
          </mxGeometry>
        </mxCell>
        <mxCell id="krsl9b_D-gAgWBF9Nas3-65" value="Submits Project" style="edgeLabel;html=1;align=center;verticalAlign=middle;resizable=0;points=[];" parent="krsl9b_D-gAgWBF9Nas3-64" vertex="1" connectable="0">
          <mxGeometry x="0.5846" y="1" relative="1" as="geometry">
            <mxPoint x="15" as="offset" />
          </mxGeometry>
        </mxCell>
        <mxCell id="krsl9b_D-gAgWBF9Nas3-36" value="view Feedback" style="text;strokeColor=none;fillColor=none;align=left;verticalAlign=middle;spacingLeft=4;spacingRight=4;overflow=hidden;points=[[0,0.5],[1,0.5]];portConstraint=eastwest;rotatable=0;whiteSpace=wrap;html=1;" parent="zkfFHV4jXpPFQw0GAbJ--17" vertex="1">
          <mxGeometry y="280" width="160" height="30" as="geometry" />
        </mxCell>
        <mxCell id="krsl9b_D-gAgWBF9Nas3-0" value="ADMINISTRATORÂ " style="swimlane;fontStyle=2;align=center;verticalAlign=top;childLayout=stackLayout;horizontal=1;startSize=26;horizontalStack=0;resizeParent=1;resizeLast=0;collapsible=1;marginBottom=0;rounded=0;shadow=0;strokeWidth=1;" parent="WIyWlLk6GJQsqaUBKTNV-1" vertex="1">
          <mxGeometry x="530" y="-1080" width="160" height="228" as="geometry">
            <mxRectangle x="230" y="140" width="160" height="26" as="alternateBounds" />
          </mxGeometry>
        </mxCell>
        <mxCell id="krsl9b_D-gAgWBF9Nas3-1" value="Name" style="text;align=left;verticalAlign=top;spacingLeft=4;spacingRight=4;overflow=hidden;rotatable=0;points=[[0,0.5],[1,0.5]];portConstraint=eastwest;" parent="krsl9b_D-gAgWBF9Nas3-0" vertex="1">
          <mxGeometry y="26" width="160" height="26" as="geometry" />
        </mxCell>
        <mxCell id="krsl9b_D-gAgWBF9Nas3-2" value="Phone Number" style="text;align=left;verticalAlign=top;spacingLeft=4;spacingRight=4;overflow=hidden;rotatable=0;points=[[0,0.5],[1,0.5]];portConstraint=eastwest;rounded=0;shadow=0;html=0;" parent="krsl9b_D-gAgWBF9Nas3-0" vertex="1">
          <mxGeometry y="52" width="160" height="26" as="geometry" />
        </mxCell>
        <mxCell id="krsl9b_D-gAgWBF9Nas3-3" value="Email Address" style="text;align=left;verticalAlign=top;spacingLeft=4;spacingRight=4;overflow=hidden;rotatable=0;points=[[0,0.5],[1,0.5]];portConstraint=eastwest;rounded=0;shadow=0;html=0;" parent="krsl9b_D-gAgWBF9Nas3-0" vertex="1">
          <mxGeometry y="78" width="160" height="26" as="geometry" />
        </mxCell>
        <mxCell id="krsl9b_D-gAgWBF9Nas3-6" value="ADMIN ID" style="text;strokeColor=none;fillColor=none;align=left;verticalAlign=middle;spacingLeft=4;spacingRight=4;overflow=hidden;points=[[0,0.5],[1,0.5]];portConstraint=eastwest;rotatable=0;whiteSpace=wrap;html=1;" parent="krsl9b_D-gAgWBF9Nas3-0" vertex="1">
          <mxGeometry y="104" width="160" height="30" as="geometry" />
        </mxCell>
        <mxCell id="krsl9b_D-gAgWBF9Nas3-4" value="" style="line;html=1;strokeWidth=1;align=left;verticalAlign=middle;spacingTop=-1;spacingLeft=3;spacingRight=3;rotatable=0;labelPosition=right;points=[];portConstraint=eastwest;" parent="krsl9b_D-gAgWBF9Nas3-0" vertex="1">
          <mxGeometry y="134" width="160" height="8" as="geometry" />
        </mxCell>
        <mxCell id="krsl9b_D-gAgWBF9Nas3-7" value="Manages Subjects" style="text;strokeColor=none;fillColor=none;align=left;verticalAlign=middle;spacingLeft=4;spacingRight=4;overflow=hidden;points=[[0,0.5],[1,0.5]];portConstraint=eastwest;rotatable=0;whiteSpace=wrap;html=1;" parent="krsl9b_D-gAgWBF9Nas3-0" vertex="1">
          <mxGeometry y="142" width="160" height="30" as="geometry" />
        </mxCell>
        <mxCell id="krsl9b_D-gAgWBF9Nas3-8" value="Manages system settings" style="text;strokeColor=none;fillColor=none;align=left;verticalAlign=middle;spacingLeft=4;spacingRight=4;overflow=hidden;points=[[0,0.5],[1,0.5]];portConstraint=eastwest;rotatable=0;whiteSpace=wrap;html=1;" parent="krsl9b_D-gAgWBF9Nas3-0" vertex="1">
          <mxGeometry y="172" width="160" height="30" as="geometry" />
        </mxCell>
        <mxCell id="krsl9b_D-gAgWBF9Nas3-5" value="Manages Users" style="text;align=left;verticalAlign=top;spacingLeft=4;spacingRight=4;overflow=hidden;rotatable=0;points=[[0,0.5],[1,0.5]];portConstraint=eastwest;" parent="krsl9b_D-gAgWBF9Nas3-0" vertex="1">
          <mxGeometry y="202" width="160" height="26" as="geometry" />
        </mxCell>
        <mxCell id="krsl9b_D-gAgWBF9Nas3-9" value="" style="endArrow=classic;html=1;rounded=0;entryX=1;entryY=0;entryDx=0;entryDy=0;exitX=0.344;exitY=1.154;exitDx=0;exitDy=0;exitPerimeter=0;" parent="WIyWlLk6GJQsqaUBKTNV-1" source="krsl9b_D-gAgWBF9Nas3-5" target="zkfFHV4jXpPFQw0GAbJ--0" edge="1">
          <mxGeometry width="50" height="50" relative="1" as="geometry">
            <mxPoint x="593" y="-847" as="sourcePoint" />
            <mxPoint x="660" y="-870" as="targetPoint" />
          </mxGeometry>
        </mxCell>
        <mxCell id="krsl9b_D-gAgWBF9Nas3-10" value="" style="endArrow=classic;html=1;rounded=0;entryX=0;entryY=0;entryDx=0;entryDy=0;" parent="WIyWlLk6GJQsqaUBKTNV-1" target="zkfFHV4jXpPFQw0GAbJ--17" edge="1">
          <mxGeometry width="50" height="50" relative="1" as="geometry">
            <mxPoint x="600" y="-850" as="sourcePoint" />
            <mxPoint x="660" y="-870" as="targetPoint" />
          </mxGeometry>
        </mxCell>
        <mxCell id="krsl9b_D-gAgWBF9Nas3-44" value="Manages" style="edgeLabel;html=1;align=center;verticalAlign=middle;resizable=0;points=[];" parent="krsl9b_D-gAgWBF9Nas3-10" vertex="1" connectable="0">
          <mxGeometry x="0.0488" y="2" relative="1" as="geometry">
            <mxPoint as="offset" />
          </mxGeometry>
        </mxCell>
        <mxCell id="krsl9b_D-gAgWBF9Nas3-11" value="INDIVIDUAL PROJECT" style="swimlane;fontStyle=0;align=center;verticalAlign=top;childLayout=stackLayout;horizontal=1;startSize=26;horizontalStack=0;resizeParent=1;resizeLast=0;collapsible=1;marginBottom=0;rounded=0;shadow=0;strokeWidth=1;" parent="WIyWlLk6GJQsqaUBKTNV-1" vertex="1">
          <mxGeometry x="440" y="-380" width="160" height="168" as="geometry">
            <mxRectangle x="130" y="380" width="160" height="26" as="alternateBounds" />
          </mxGeometry>
        </mxCell>
        <mxCell id="krsl9b_D-gAgWBF9Nas3-12" value="Project NumberÂ " style="text;align=left;verticalAlign=top;spacingLeft=4;spacingRight=4;overflow=hidden;rotatable=0;points=[[0,0.5],[1,0.5]];portConstraint=eastwest;" parent="krsl9b_D-gAgWBF9Nas3-11" vertex="1">
          <mxGeometry y="26" width="160" height="26" as="geometry" />
        </mxCell>
        <mxCell id="krsl9b_D-gAgWBF9Nas3-13" value="DescriptionÂ " style="text;align=left;verticalAlign=top;spacingLeft=4;spacingRight=4;overflow=hidden;rotatable=0;points=[[0,0.5],[1,0.5]];portConstraint=eastwest;rounded=0;shadow=0;html=0;" parent="krsl9b_D-gAgWBF9Nas3-11" vertex="1">
          <mxGeometry y="52" width="160" height="26" as="geometry" />
        </mxCell>
        <mxCell id="krsl9b_D-gAgWBF9Nas3-14" value="" style="line;html=1;strokeWidth=1;align=left;verticalAlign=middle;spacingTop=-1;spacingLeft=3;spacingRight=3;rotatable=0;labelPosition=right;points=[];portConstraint=eastwest;" parent="krsl9b_D-gAgWBF9Nas3-11" vertex="1">
          <mxGeometry y="78" width="160" height="8" as="geometry" />
        </mxCell>
        <mxCell id="krsl9b_D-gAgWBF9Nas3-15" value="Submissin DATE" style="text;align=left;verticalAlign=top;spacingLeft=4;spacingRight=4;overflow=hidden;rotatable=0;points=[[0,0.5],[1,0.5]];portConstraint=eastwest;fontStyle=4" parent="krsl9b_D-gAgWBF9Nas3-11" vertex="1">
          <mxGeometry y="86" width="160" height="26" as="geometry" />
        </mxCell>
        <mxCell id="krsl9b_D-gAgWBF9Nas3-16" value="Submit Project" style="text;align=left;verticalAlign=top;spacingLeft=4;spacingRight=4;overflow=hidden;rotatable=0;points=[[0,0.5],[1,0.5]];portConstraint=eastwest;" parent="krsl9b_D-gAgWBF9Nas3-11" vertex="1">
          <mxGeometry y="112" width="160" height="26" as="geometry" />
        </mxCell>
        <mxCell id="krsl9b_D-gAgWBF9Nas3-45" value="Grade Project" style="text;strokeColor=none;fillColor=none;align=left;verticalAlign=middle;spacingLeft=4;spacingRight=4;overflow=hidden;points=[[0,0.5],[1,0.5]];portConstraint=eastwest;rotatable=0;whiteSpace=wrap;html=1;" parent="krsl9b_D-gAgWBF9Nas3-11" vertex="1">
          <mxGeometry y="138" width="160" height="30" as="geometry" />
        </mxCell>
        <mxCell id="krsl9b_D-gAgWBF9Nas3-17" value="QUIZZES" style="swimlane;fontStyle=0;align=center;verticalAlign=top;childLayout=stackLayout;horizontal=1;startSize=26;horizontalStack=0;resizeParent=1;resizeLast=0;collapsible=1;marginBottom=0;rounded=0;shadow=0;strokeWidth=1;" parent="WIyWlLk6GJQsqaUBKTNV-1" vertex="1">
          <mxGeometry x="650" y="-380" width="170" height="160" as="geometry">
            <mxRectangle x="130" y="380" width="160" height="26" as="alternateBounds" />
          </mxGeometry>
        </mxCell>
        <mxCell id="krsl9b_D-gAgWBF9Nas3-18" value="Quiz numberÂ " style="text;align=left;verticalAlign=top;spacingLeft=4;spacingRight=4;overflow=hidden;rotatable=0;points=[[0,0.5],[1,0.5]];portConstraint=eastwest;" parent="krsl9b_D-gAgWBF9Nas3-17" vertex="1">
          <mxGeometry y="26" width="170" height="26" as="geometry" />
        </mxCell>
        <mxCell id="krsl9b_D-gAgWBF9Nas3-19" value="Average Mark" style="text;align=left;verticalAlign=top;spacingLeft=4;spacingRight=4;overflow=hidden;rotatable=0;points=[[0,0.5],[1,0.5]];portConstraint=eastwest;rounded=0;shadow=0;html=0;" parent="krsl9b_D-gAgWBF9Nas3-17" vertex="1">
          <mxGeometry y="52" width="170" height="26" as="geometry" />
        </mxCell>
        <mxCell id="krsl9b_D-gAgWBF9Nas3-20" value="" style="line;html=1;strokeWidth=1;align=left;verticalAlign=middle;spacingTop=-1;spacingLeft=3;spacingRight=3;rotatable=0;labelPosition=right;points=[];portConstraint=eastwest;" parent="krsl9b_D-gAgWBF9Nas3-17" vertex="1">
          <mxGeometry y="78" width="170" height="8" as="geometry" />
        </mxCell>
        <mxCell id="krsl9b_D-gAgWBF9Nas3-21" value="max score" style="text;align=left;verticalAlign=top;spacingLeft=4;spacingRight=4;overflow=hidden;rotatable=0;points=[[0,0.5],[1,0.5]];portConstraint=eastwest;fontStyle=4" parent="krsl9b_D-gAgWBF9Nas3-17" vertex="1">
          <mxGeometry y="86" width="170" height="26" as="geometry" />
        </mxCell>
        <mxCell id="krsl9b_D-gAgWBF9Nas3-22" value="Â Â Â Â Question" style="text;align=left;verticalAlign=top;spacingLeft=4;spacingRight=4;overflow=hidden;rotatable=0;points=[[0,0.5],[1,0.5]];portConstraint=eastwest;" parent="krsl9b_D-gAgWBF9Nas3-17" vertex="1">
          <mxGeometry y="112" width="170" height="26" as="geometry" />
        </mxCell>
        <mxCell id="krsl9b_D-gAgWBF9Nas3-23" value="FEEDBACK" style="swimlane;fontStyle=0;align=center;verticalAlign=top;childLayout=stackLayout;horizontal=1;startSize=26;horizontalStack=0;resizeParent=1;resizeLast=0;collapsible=1;marginBottom=0;rounded=0;shadow=0;strokeWidth=1;" parent="WIyWlLk6GJQsqaUBKTNV-1" vertex="1">
          <mxGeometry x="850" y="-380" width="160" height="168" as="geometry">
            <mxRectangle x="130" y="380" width="160" height="26" as="alternateBounds" />
          </mxGeometry>
        </mxCell>
        <mxCell id="krsl9b_D-gAgWBF9Nas3-24" value="provide Feedback" style="text;align=left;verticalAlign=top;spacingLeft=4;spacingRight=4;overflow=hidden;rotatable=0;points=[[0,0.5],[1,0.5]];portConstraint=eastwest;" parent="krsl9b_D-gAgWBF9Nas3-23" vertex="1">
          <mxGeometry y="26" width="160" height="26" as="geometry" />
        </mxCell>
        <mxCell id="krsl9b_D-gAgWBF9Nas3-25" value="Coometts" style="text;align=left;verticalAlign=top;spacingLeft=4;spacingRight=4;overflow=hidden;rotatable=0;points=[[0,0.5],[1,0.5]];portConstraint=eastwest;rounded=0;shadow=0;html=0;" parent="krsl9b_D-gAgWBF9Nas3-23" vertex="1">
          <mxGeometry y="52" width="160" height="26" as="geometry" />
        </mxCell>
        <mxCell id="krsl9b_D-gAgWBF9Nas3-26" value="" style="line;html=1;strokeWidth=1;align=left;verticalAlign=middle;spacingTop=-1;spacingLeft=3;spacingRight=3;rotatable=0;labelPosition=right;points=[];portConstraint=eastwest;" parent="krsl9b_D-gAgWBF9Nas3-23" vertex="1">
          <mxGeometry y="78" width="160" height="8" as="geometry" />
        </mxCell>
        <mxCell id="krsl9b_D-gAgWBF9Nas3-27" value="Grades" style="text;align=left;verticalAlign=top;spacingLeft=4;spacingRight=4;overflow=hidden;rotatable=0;points=[[0,0.5],[1,0.5]];portConstraint=eastwest;fontStyle=4" parent="krsl9b_D-gAgWBF9Nas3-23" vertex="1">
          <mxGeometry y="86" width="160" height="26" as="geometry" />
        </mxCell>
        <mxCell id="krsl9b_D-gAgWBF9Nas3-28" value="Provide feedback" style="text;align=left;verticalAlign=top;spacingLeft=4;spacingRight=4;overflow=hidden;rotatable=0;points=[[0,0.5],[1,0.5]];portConstraint=eastwest;" parent="krsl9b_D-gAgWBF9Nas3-23" vertex="1">
          <mxGeometry y="112" width="160" height="26" as="geometry" />
        </mxCell>
        <mxCell id="krsl9b_D-gAgWBF9Nas3-46" value="View Feedback" style="text;strokeColor=none;fillColor=none;align=left;verticalAlign=middle;spacingLeft=4;spacingRight=4;overflow=hidden;points=[[0,0.5],[1,0.5]];portConstraint=eastwest;rotatable=0;whiteSpace=wrap;html=1;" parent="krsl9b_D-gAgWBF9Nas3-23" vertex="1">
          <mxGeometry y="138" width="160" height="30" as="geometry" />
        </mxCell>
        <mxCell id="krsl9b_D-gAgWBF9Nas3-39" value="" style="endArrow=classic;html=1;rounded=0;exitX=0;exitY=0.5;exitDx=0;exitDy=0;entryX=0.138;entryY=0;entryDx=0;entryDy=0;entryPerimeter=0;" parent="WIyWlLk6GJQsqaUBKTNV-1" source="krsl9b_D-gAgWBF9Nas3-5" target="zkfFHV4jXpPFQw0GAbJ--6" edge="1">
          <mxGeometry width="50" height="50" relative="1" as="geometry">
            <mxPoint x="460" y="-830" as="sourcePoint" />
            <mxPoint x="250" y="-550" as="targetPoint" />
            <Array as="points">
              <mxPoint x="252" y="-860" />
            </Array>
          </mxGeometry>
        </mxCell>
        <mxCell id="krsl9b_D-gAgWBF9Nas3-41" value="" style="endArrow=classic;html=1;rounded=0;exitX=-0.019;exitY=0.9;exitDx=0;exitDy=0;exitPerimeter=0;entryX=0.319;entryY=-0.012;entryDx=0;entryDy=0;entryPerimeter=0;" parent="WIyWlLk6GJQsqaUBKTNV-1" source="krsl9b_D-gAgWBF9Nas3-32" target="zkfFHV4jXpPFQw0GAbJ--6" edge="1">
          <mxGeometry width="50" height="50" relative="1" as="geometry">
            <mxPoint x="350" y="-540" as="sourcePoint" />
            <mxPoint x="280" y="-390" as="targetPoint" />
            <Array as="points">
              <mxPoint x="280" y="-530" />
            </Array>
          </mxGeometry>
        </mxCell>
        <mxCell id="krsl9b_D-gAgWBF9Nas3-63" value="Creates subjects" style="edgeLabel;html=1;align=center;verticalAlign=middle;resizable=0;points=[];" parent="krsl9b_D-gAgWBF9Nas3-41" vertex="1" connectable="0">
          <mxGeometry x="0.1287" relative="1" as="geometry">
            <mxPoint x="20" y="5" as="offset" />
          </mxGeometry>
        </mxCell>
        <mxCell id="krsl9b_D-gAgWBF9Nas3-43" value="Manages" style="text;html=1;align=center;verticalAlign=middle;resizable=0;points=[];autosize=1;strokeColor=none;fillColor=none;" parent="WIyWlLk6GJQsqaUBKTNV-1" vertex="1">
          <mxGeometry x="515" y="-822" width="70" height="30" as="geometry" />
        </mxCell>
        <mxCell id="krsl9b_D-gAgWBF9Nas3-47" value="" style="endArrow=classic;html=1;rounded=0;entryX=1;entryY=0.5;entryDx=0;entryDy=0;" parent="WIyWlLk6GJQsqaUBKTNV-1" target="krsl9b_D-gAgWBF9Nas3-35" edge="1">
          <mxGeometry width="50" height="50" relative="1" as="geometry">
            <mxPoint x="960" y="-390" as="sourcePoint" />
            <mxPoint x="960" y="-390" as="targetPoint" />
            <Array as="points">
              <mxPoint x="960" y="-540" />
            </Array>
          </mxGeometry>
        </mxCell>
        <mxCell id="krsl9b_D-gAgWBF9Nas3-48" value="receives feedback" style="edgeLabel;html=1;align=center;verticalAlign=middle;resizable=0;points=[];" parent="krsl9b_D-gAgWBF9Nas3-47" vertex="1" connectable="0">
          <mxGeometry x="0.264" relative="1" as="geometry">
            <mxPoint as="offset" />
          </mxGeometry>
        </mxCell>
        <mxCell id="krsl9b_D-gAgWBF9Nas3-49" value="" style="endArrow=classic;html=1;rounded=0;entryX=0.75;entryY=0;entryDx=0;entryDy=0;exitX=0;exitY=0.5;exitDx=0;exitDy=0;" parent="WIyWlLk6GJQsqaUBKTNV-1" source="krsl9b_D-gAgWBF9Nas3-35" target="krsl9b_D-gAgWBF9Nas3-11" edge="1">
          <mxGeometry width="50" height="50" relative="1" as="geometry">
            <mxPoint x="690" y="-530" as="sourcePoint" />
            <mxPoint x="560" y="-498" as="targetPoint" />
            <Array as="points">
              <mxPoint x="560" y="-530" />
            </Array>
          </mxGeometry>
        </mxCell>
        <mxCell id="krsl9b_D-gAgWBF9Nas3-50" value="Attempts project" style="edgeLabel;html=1;align=center;verticalAlign=middle;resizable=0;points=[];" parent="krsl9b_D-gAgWBF9Nas3-49" vertex="1" connectable="0">
          <mxGeometry x="0.4786" y="1" relative="1" as="geometry">
            <mxPoint x="-11" as="offset" />
          </mxGeometry>
        </mxCell>
        <mxCell id="krsl9b_D-gAgWBF9Nas3-51" value="" style="endArrow=classic;html=1;rounded=0;exitX=0.688;exitY=1.115;exitDx=0;exitDy=0;exitPerimeter=0;entryX=0.188;entryY=-0.012;entryDx=0;entryDy=0;entryPerimeter=0;" parent="WIyWlLk6GJQsqaUBKTNV-1" source="zkfFHV4jXpPFQw0GAbJ--5" target="krsl9b_D-gAgWBF9Nas3-11" edge="1">
          <mxGeometry width="50" height="50" relative="1" as="geometry">
            <mxPoint x="430" y="-410" as="sourcePoint" />
            <mxPoint x="480" y="-460" as="targetPoint" />
          </mxGeometry>
        </mxCell>
        <mxCell id="krsl9b_D-gAgWBF9Nas3-53" value="Grades project" style="edgeLabel;html=1;align=center;verticalAlign=middle;resizable=0;points=[];" parent="krsl9b_D-gAgWBF9Nas3-51" vertex="1" connectable="0">
          <mxGeometry x="-0.0462" y="1" relative="1" as="geometry">
            <mxPoint as="offset" />
          </mxGeometry>
        </mxCell>
        <mxCell id="krsl9b_D-gAgWBF9Nas3-54" value="" style="endArrow=classic;html=1;rounded=0;exitX=1;exitY=0.5;exitDx=0;exitDy=0;entryX=0.135;entryY=-0.025;entryDx=0;entryDy=0;entryPerimeter=0;" parent="WIyWlLk6GJQsqaUBKTNV-1" source="krsl9b_D-gAgWBF9Nas3-34" target="krsl9b_D-gAgWBF9Nas3-17" edge="1">
          <mxGeometry width="50" height="50" relative="1" as="geometry">
            <mxPoint x="660" y="-390" as="sourcePoint" />
            <mxPoint x="710" y="-440" as="targetPoint" />
            <Array as="points">
              <mxPoint x="673" y="-510" />
            </Array>
          </mxGeometry>
        </mxCell>
        <mxCell id="krsl9b_D-gAgWBF9Nas3-55" value="Grades Quiz" style="edgeLabel;html=1;align=center;verticalAlign=middle;resizable=0;points=[];" parent="krsl9b_D-gAgWBF9Nas3-54" vertex="1" connectable="0">
          <mxGeometry x="0.5986" y="1" relative="1" as="geometry">
            <mxPoint as="offset" />
          </mxGeometry>
        </mxCell>
        <mxCell id="krsl9b_D-gAgWBF9Nas3-56" value="" style="endArrow=classic;html=1;rounded=0;entryX=0.718;entryY=-0.019;entryDx=0;entryDy=0;entryPerimeter=0;exitX=0.45;exitY=1.133;exitDx=0;exitDy=0;exitPerimeter=0;" parent="WIyWlLk6GJQsqaUBKTNV-1" source="krsl9b_D-gAgWBF9Nas3-36" target="krsl9b_D-gAgWBF9Nas3-17" edge="1">
          <mxGeometry width="50" height="50" relative="1" as="geometry">
            <mxPoint x="770" y="-440" as="sourcePoint" />
            <mxPoint x="820" y="-490" as="targetPoint" />
          </mxGeometry>
        </mxCell>
        <mxCell id="krsl9b_D-gAgWBF9Nas3-57" value="Attempts Quiz" style="edgeLabel;html=1;align=center;verticalAlign=middle;resizable=0;points=[];" parent="krsl9b_D-gAgWBF9Nas3-56" vertex="1" connectable="0">
          <mxGeometry x="0.0144" relative="1" as="geometry">
            <mxPoint as="offset" />
          </mxGeometry>
        </mxCell>
        <mxCell id="krsl9b_D-gAgWBF9Nas3-58" value="" style="endArrow=classic;html=1;rounded=0;entryX=0.744;entryY=1;entryDx=0;entryDy=0;entryPerimeter=0;exitX=0.294;exitY=1.154;exitDx=0;exitDy=0;exitPerimeter=0;" parent="WIyWlLk6GJQsqaUBKTNV-1" target="krsl9b_D-gAgWBF9Nas3-46" edge="1">
          <mxGeometry width="50" height="50" relative="1" as="geometry">
            <mxPoint x="420" y="-509.9960000000001" as="sourcePoint" />
            <mxPoint x="959.9200000000001" y="-252" as="targetPoint" />
            <Array as="points">
              <mxPoint x="422.96000000000004" y="-243" />
              <mxPoint x="430" y="-160" />
              <mxPoint x="962.96" y="-153" />
            </Array>
          </mxGeometry>
        </mxCell>
        <mxCell id="krsl9b_D-gAgWBF9Nas3-62" value="gives feedback&amp;nbsp;" style="edgeLabel;html=1;align=center;verticalAlign=middle;resizable=0;points=[];" parent="krsl9b_D-gAgWBF9Nas3-58" vertex="1" connectable="0">
          <mxGeometry x="0.2047" relative="1" as="geometry">
            <mxPoint as="offset" />
          </mxGeometry>
        </mxCell>
        <mxCell id="krsl9b_D-gAgWBF9Nas3-66" value="" style="endArrow=classic;html=1;rounded=0;exitX=1.025;exitY=0.077;exitDx=0;exitDy=0;exitPerimeter=0;" parent="WIyWlLk6GJQsqaUBKTNV-1" source="zkfFHV4jXpPFQw0GAbJ--21" edge="1">
          <mxGeometry width="50" height="50" relative="1" as="geometry">
            <mxPoint x="970" y="-570" as="sourcePoint" />
            <mxPoint x="350" y="-210" as="targetPoint" />
            <Array as="points">
              <mxPoint x="1020" y="-670" />
              <mxPoint x="1020" y="-40" />
              <mxPoint x="350" y="-40" />
            </Array>
          </mxGeometry>
        </mxCell>
        <mxCell id="krsl9b_D-gAgWBF9Nas3-69" value="Student attendes to subject" style="edgeLabel;html=1;align=center;verticalAlign=middle;resizable=0;points=[];" parent="krsl9b_D-gAgWBF9Nas3-66" vertex="1" connectable="0">
          <mxGeometry x="0.3598" y="-4" relative="1" as="geometry">
            <mxPoint as="offset" />
          </mxGeometry>
        </mxCell>
        <mxCell id="krsl9b_D-gAgWBF9Nas3-72" value="&lt;font style=&quot;font-size: 24px;&quot;&gt;SMART STUDY HUB CLASS DIAGRAM&lt;/font&gt;" style="text;html=1;align=center;verticalAlign=middle;resizable=0;points=[];autosize=1;strokeColor=none;fillColor=none;" parent="WIyWlLk6GJQsqaUBKTNV-1" vertex="1">
          <mxGeometry x="220" y="-1157" width="460" height="40" as="geometry" />
        </mxCell>
      </root>
    </mxGraphModel>
  </diagram>
</mxfile>
